<?xml version="1.0"?>
<svg xmlns="http://www.w3.org/2000/svg" xmlns:xlink="http://www.w3.org/1999/xlink" xmlns:svgjs="http://svgjs.com/svgjs" version="1.1" width="512" height="512" x="0" y="0" viewBox="0 0 128 128" style="enable-background:new 0 0 512 512" xml:space="preserve" class=""><g><g xmlns="http://www.w3.org/2000/svg" id="Circle_Grid" data-name="Circle Grid"><circle cx="64" cy="64" fill="#1a1617" r="64" data-original="#ef5261" style="" class=""/></g><g xmlns="http://www.w3.org/2000/svg" id="icon"><path d="m105 41.192v45.616a2.192 2.192 0 0 1 -.7 1.586 1.092 1.092 0 0 1 -.174.141 2.125 2.125 0 0 1 -1.3.445h-77.654a2.125 2.125 0 0 1 -1.3-.445 1.092 1.092 0 0 1 -.174-.141 2.192 2.192 0 0 1 -.7-1.586v-45.616a2.223 2.223 0 0 1 .38-1.238 2.845 2.845 0 0 1 .239-.272 2.131 2.131 0 0 1 1.553-.663h77.656a2.131 2.131 0 0 1 1.553.663 2.845 2.845 0 0 1 .239.272 2.223 2.223 0 0 1 .382 1.238z" fill="#c7c5c3" data-original="#f6b863" style="" class=""/><g fill="#eaa14e"><path d="m104.62 39.954c-2.563 2.455-5.17 4.877-7.733 7.331q-5.295 4.936-10.622 9.807-3.454 3.16-6.929 6.288c-.565.51-1.13 1.021-1.705 1.531q-6.4 5.767-12.87 11.458l-.76.673-.76-.673c-4.29-3.8-8.591-7.614-12.859-11.458-.576-.5-1.151-1.021-1.716-1.531q-3.486-3.128-6.929-6.288-5.344-4.871-10.622-9.807c-2.563-2.455-5.17-4.877-7.733-7.331a2.845 2.845 0 0 1 .239-.272c2.759 2.216 5.485 4.486 8.233 6.712q5.553 4.606 11.054 9.276c7.092 6 14.1 12.1 21.092 18.214 6.994-6.126 14-12.219 21.092-18.214q5.49-4.676 11.056-9.275c2.748-2.226 5.474-4.5 8.233-6.712a2.845 2.845 0 0 1 .239.271z" fill="#eaa14e" data-original="#eaa14e" style="" class=""/><path d="m51.086 64.282-.706.63-26.511 23.623a1.092 1.092 0 0 1 -.174-.141l24.969-25.013.858-.858z" fill="#eaa14e" data-original="#eaa14e" style="" class=""/><path d="m104.3 88.394a1.092 1.092 0 0 1 -.174.141l-26.496-23.623-.717-.63 1.564-1.759.858.858z" fill="#eaa14e" data-original="#eaa14e" style="" class=""/></g></g><script/></g></svg>
