<svg height="512" viewBox="0 0 58 58" width="512" xmlns="http://www.w3.org/2000/svg"><g id="Page-1" fill="none" fill-rule="evenodd"><g id="002---Phone" fill="rgb(0,0,0)" fill-rule="nonzero" transform="translate(-1 -1)"><path id="Shape" d="m46.618 40.505-6.488-4.055c-.3948762-.2467123-.907775-.1882493-1.237.141l-2.3 2.3c-.6802801.6833518-1.6482768.9968338-2.6.842-3.3896211-.6575463-6.4898459-2.3556963-8.869-4.858-2.5023037-2.3791541-4.2004537-5.4793789-4.858-8.869-.1556848-.9517878.1579209-1.9201665.842-2.6l2.3-2.3c.3292493-.329225.3877123-.8421238.141-1.237l-4.049-6.487c-.1821214-.2921618-.501724-.4700966-.846-.471-.1559324.000422-.3096364.0370508-.449.107l-6.52 3.26c-.3751418.1845517-.5943096.584493-.548 1 .639 5.277 3.017 13.183 10.713 20.879s15.6 10.074 20.879 10.713c.4150275.0439013.8136765-.1745584 1-.548l3.26-6.52c.2304753-.4632103.0695673-1.0257379-.371-1.297z"/><path id="Shape" d="m27.65 1.093c-10.11566.82145961-19.06587404 6.87126809-23.59906305 15.9515528-4.53318901 9.0802848-3.98968349 19.8696831 1.43306305 28.4484472.35359156.5457564.42282019 1.2283655.186 1.834l-3.889 9.72c-.14292161.3583176-.06699303.7668901.19511887 1.0499367.26211189.2830467.66365823.3900848 1.03188113.2750633l10.935-3.417c.5389891-.1642808 1.1221419-.095376 1.608.19 10.8140812 6.2114405 24.3883642 4.8136145 33.7096691-3.4712886 9.321305-8.2849031 12.302078-21.6014368 7.4022968-33.0695878-4.8997812-11.46815111-16.5827855-18.51956851-29.0129659-17.5111236zm2.35 2.907c.5522847 0 1 .44771525 1 1s-.4477153 1-1 1-1-.44771525-1-1 .4477153-1 1-1zm18.771 38.694-3.26 6.521c-.5607956 1.1320598-1.7735263 1.7884883-3.028 1.639-5.589-.678-13.953-3.185-22.052-11.285s-10.607-16.463-11.285-22.052c-.14490299-1.2535936.5101844-2.4638466 1.639-3.028l6.521-3.26c1.3827302-.698229 3.0697946-.2231586 3.885 1.094l4.055 6.488c.745919 1.1833146.570086 2.7259066-.423 3.711l-2.3 2.3c-.2257982.2220016-.3310992.5390208-.283.852.5871911 2.9802136 2.0905119 5.7026226 4.3 7.787 2.0841529 2.209254 4.8061679 3.7125502 7.786 4.3.3133362.048775.6309579-.0566025.853-.283l2.3-2.3c.9845914-.9932842 2.5270845-1.1691533 3.71-.423l6.488 4.055c1.315795.8157539 1.7905938 2.5014198 1.094 3.884zm.267-28.928c-.4056684.3746838-1.0382563.3496131-1.413-.056-3.6583605-3.94103681-8.5271195-6.548735-13.835-7.41-.3527998-.05680523-.648495-.29751186-.7757001-.63144804s-.0665946-.71036905.159-.9875c.2255947-.27713095.5819003-.41285719.9347001-.35605196 5.7486529.93221389 11.0220203 3.75558571 14.985 8.023.1816071.1949153.2779314.4542387.267606.7204463s-.1264469.5172908-.322606.6975537z"/></g></g></svg>